<?xml version="1.0" encoding="UTF-8" standalone="no"?>
<!DOCTYPE svg PUBLIC "-//W3C//DTD SVG 1.1//EN" "http://www.w3.org/Graphics/SVG/1.1/DTD/svg11.dtd">
<svg width="2125px" height="237px" version="1.1" xmlns="http://www.w3.org/2000/svg" xmlns:xlink="http://www.w3.org/1999/xlink" xml:space="preserve" xmlns:serif="http://www.serif.com/" style="fill-rule:evenodd;clip-rule:evenodd;stroke-linejoin:round;stroke-miterlimit:2;">
    <g>
        <g>
            <path d="M521.484,126.453L521.484,109.665C521.484,70.595 496.467,56.886 436.492,56.886C376.525,56.886 351.504,70.595 351.504,109.665L351.504,126.453C351.504,165.866 376.867,179.916 436.492,179.916C496.125,179.916 521.484,165.866 521.484,126.453M283.654,129.882L283.654,106.232C283.654,35.64 330.6,0.34 436.492,-0.001C542.384,-0.001 589.338,35.64 589.338,106.232L589.338,129.882C589.338,201.161 542.384,236.799 436.492,236.799C330.6,237.145 283.654,201.161 283.654,129.882" style="fill:rgb(20,20,20);fill-rule:nonzero;"/>
        </g>
        <g>
            <path d="M849.446,4.796L849.446,61.342L760.692,61.342L760.692,232.005L695.58,232.005L695.58,61.342L606.821,61.342L606.821,4.796L849.446,4.796Z" style="fill:rgb(20,20,20);fill-rule:nonzero;"/>
        </g>
        <g>
            <path d="M1104.77,126.453L1104.77,109.665C1104.77,70.595 1079.75,56.886 1019.78,56.886C959.809,56.886 934.788,70.595 934.788,109.665L934.788,126.453C934.788,165.866 960.151,179.916 1019.78,179.916C1079.41,179.916 1104.77,165.866 1104.77,126.453M866.938,129.882L866.938,106.232C866.938,35.64 913.884,0.34 1019.78,-0.001C1125.67,-0.001 1172.62,35.64 1172.62,106.232L1172.62,129.882C1172.62,201.161 1125.67,236.799 1019.78,236.799C913.884,237.145 866.938,201.161 866.938,129.882" style="fill:rgb(20,20,20);fill-rule:nonzero;"/>
        </g>
        <g>
            <path d="M1435.13,4.796L1496.13,4.796L1496.13,232.005L1420.39,232.005L1283.32,87.73L1283.32,232.005L1221.97,232.005L1221.97,4.796L1294.97,4.796L1435.13,148.726L1435.13,4.796Z" style="fill:rgb(20,20,20);fill-rule:nonzero;"/>
        </g>
        <g>
            <path d="M1759.68,109.665C1759.68,74.024 1741.86,61.344 1704.85,61.344L1624.31,61.344L1624.31,175.461L1704.85,175.461C1741.51,175.461 1759.68,162.44 1759.68,126.115L1759.68,109.665ZM1703.48,4.794C1789.84,4.794 1826.84,37.699 1826.84,110.007L1826.84,126.799C1826.84,199.449 1789.84,232.007 1703.48,232.007L1559.2,232.007L1559.2,4.794L1703.48,4.794Z" style="fill:rgb(20,20,20);fill-rule:nonzero;"/>
        </g>
        <g>
            <path d="M182.542,85.332C182.542,99.724 175.004,107.949 154.442,107.949L64.654,107.949L64.654,58.944L154.442,58.944C174.658,58.944 182.542,66.828 182.542,80.878L182.542,85.332ZM200.017,152.499C233.263,143.932 249.713,122.682 249.713,82.932L249.713,78.136C249.713,25.361 218.867,4.799 157.183,4.799L-0,4.799L-0,57.878C-0,72.561 6.237,86.578 17.133,96.419C24.604,103.169 29.475,112.853 29.475,118.403C29.475,123.953 24.604,133.636 17.133,140.386C6.237,150.224 -0,164.245 -0,178.928L-0,232.003L64.654,232.003L64.654,156.957L128.737,156.957L181.512,232.003L258.963,232.003L200.017,152.499Z" style="fill:rgb(20,20,20);fill-rule:nonzero;"/>
        </g>
        <g>
            <path d="M1989.76,107.95L2009.37,81.504C2019.89,67.312 2036.51,58.945 2054.18,58.945L2059.89,58.945L2059.89,107.95L1989.76,107.95ZM2124.54,232.004L2124.54,178.929C2124.54,164.246 2118.3,150.225 2107.41,140.387C2099.93,133.637 2095.06,123.95 2095.06,118.404C2095.06,112.854 2099.93,103.166 2107.41,96.42C2118.3,86.579 2124.54,72.558 2124.54,57.879L2124.54,4.8L2044.59,4.8C2009.49,4.8 1976.46,21.429 1955.55,49.629L1820.34,232.004L1897.79,232.004L1953.43,156.954L2059.89,156.954L2059.89,232.004L2124.54,232.004Z" style="fill:rgb(20,20,20);fill-rule:nonzero;"/>
        </g>
    </g>
</svg>
