<?xml version="1.0" encoding="UTF-8"?><svg
  id="Layer_1"
  xmlns="http://www.w3.org/2000/svg"
  viewBox="0 0 1417.32 256.17"
  width="1417.32px" height="256.17px" 
>
  <defs>
    <style>
      .cls-1 {
        fill: #fff;
      }
    </style>
  </defs>
  <path
    class="cls-1"
    d="m281.67,49.09l-25.13-32.75s0-.01-.01-.02C243.91-.12,218.66-4.31,185.43,4.52c-27.64,7.34-58.68,23.02-88.31,44.46-5.58,4.04-11.04,8.23-16.38,12.57-28.38,23.07-51.55,49-65.8,73.8-17.13,29.81-19.61,55.29-7,71.73h0s25.14,32.77,25.14,32.77c8.53,11.12,22.85,16.64,41.5,16.31,8.92-.16,18.84-1.65,29.6-4.51,27.64-7.34,58.68-23.02,88.31-44.46,5.58-4.04,11.04-8.23,16.38-12.57,28.38-23.07,51.55-49,65.8-73.8,17.13-29.81,19.61-55.29,7-71.73Zm-39.55,4.18c-20.68-.13-51.5,9.73-85.32,30.27-1.49.9-2.66,2.26-3.33,3.87h0c-1,2.42-.64,5.19.96,7.26,1.59,2.07,4.17,3.14,6.76,2.8l63.25-8.33c-5.29,7.72-11.45,15.52-18.38,23.25l-42.17,5.55c-2.59.34-4.8,2.04-5.81,4.45-1,2.42-.64,5.18.96,7.25l12.13,15.8c-2.65,2.16-5.34,4.31-8.09,6.42-2.77,2.13-5.54,4.16-8.29,6.15l-12.13-15.81c-1.59-2.07-4.17-3.14-6.76-2.8-2.59.34-4.8,2.04-5.81,4.45l-16.3,39.35c-9.52,4.84-18.66,8.78-27.25,11.81l24.47-59.07c1-2.42.64-5.18-.96-7.25-1.59-2.07-4.17-3.14-6.76-2.8h0c-1.72.23-3.31.99-4.57,2.2-17.18,16.47-31.21,33.71-40.73,50.28-5.09,8.85-8.59,17.14-10.49,24.49-10.87-.07-18.95-2.89-23.17-8.38-13.95-18.18,11.14-69.45,68.99-116.57,5.34-4.35,10.79-8.56,16.37-12.59,41.33-29.84,80.56-44.41,105.72-44.84,11.67-.2,20.32,2.63,24.74,8.39,4.12,5.36,4.69,13.9,1.97,24.38Z"
  />
  <path
    class="cls-1"
    d="m444.35,184.48l-26.2-37.26h-31.81v37.26h-32.33v-112.8h78.26c30.62,0,45.93,10.21,45.93,36.41v2.38c0,19.74-8.17,30.28-24.67,34.54l29.26,39.47h-38.45Zm-58.01-85.92v24.33h44.57c10.21,0,13.95-4.08,13.95-11.23v-2.21c0-6.98-3.91-10.89-13.95-10.89h-44.57Z"
  />
  <path
    class="cls-1"
    d="m495.93,133.78v-11.74c0-35.05,23.31-52.57,75.88-52.74,52.57,0,75.88,17.69,75.88,52.74v11.74c0,35.39-23.31,53.08-75.88,53.08-52.57.17-75.88-17.69-75.88-53.08Zm118.07-1.7v-8.34c0-19.39-12.42-26.2-42.19-26.2s-42.19,6.81-42.19,26.2v8.34c0,19.57,12.59,26.54,42.19,26.54s42.19-6.98,42.19-26.54Z"
  />
  <path
    class="cls-1"
    d="m781.24,71.69v28.07h-44.06v84.72h-32.32v-84.72h-44.06v-28.07h120.45Z"
  />
  <path
    class="cls-1"
    d="m794.26,133.78v-11.74c0-35.05,23.31-52.57,75.88-52.74,52.57,0,75.88,17.69,75.88,52.74v11.74c0,35.39-23.31,53.08-75.88,53.08-52.57.17-75.88-17.69-75.88-53.08Zm118.07-1.7v-8.34c0-19.39-12.42-26.2-42.19-26.2s-42.19,6.81-42.19,26.2v8.34c0,19.57,12.59,26.54,42.19,26.54s42.19-6.98,42.19-26.54Z"
  />
  <path
    class="cls-1"
    d="m1074.21,71.69h30.28v112.8h-37.6l-68.05-71.62v71.62h-30.45v-112.8h36.24l69.58,71.45v-71.45Z"
  />
  <path
    class="cls-1"
    d="m1203.99,71.69c42.87,0,61.24,16.33,61.24,52.23v8.34c0,36.07-18.37,52.23-61.24,52.23h-71.63v-112.8h71.63Zm27.9,52.06c0-17.69-8.84-23.99-27.22-23.99h-39.98v56.65h39.98c18.2,0,27.22-6.47,27.22-24.5v-8.17Z"
  />
  <path
    class="cls-1"
    d="m1383.47,184.48l-9.02-18.37h-62.44l-9.02,18.37h-33.69l58.86-112.97h30.11l59.04,112.97h-33.86Zm-60.23-41.17h39.98l-19.9-41-20.07,41Z"
  />
</svg>
