<?xml version="1.0" encoding="UTF-8" standalone="no"?>
<!DOCTYPE svg PUBLIC "-//W3C//DTD SVG 1.1//EN" "http://www.w3.org/Graphics/SVG/1.1/DTD/svg11.dtd">
<svg width="100%" height="100%" viewBox="0 0 2125 237" version="1.1" xmlns="http://www.w3.org/2000/svg" xmlns:xlink="http://www.w3.org/1999/xlink" xml:space="preserve" xmlns:serif="http://www.serif.com/" style="fill-rule:evenodd;clip-rule:evenodd;stroke-linejoin:round;stroke-miterlimit:2;">
    <g transform="matrix(1,0,0,1,-157.012,-426.177)">
        <g transform="matrix(4.16667,0,0,4.16667,-861.864,-698.346)">
            <path d="M369.686,300.234L369.686,296.205C369.686,286.828 363.682,283.538 349.288,283.538C334.896,283.538 328.891,286.828 328.891,296.205L328.891,300.234C328.891,309.693 334.978,313.065 349.288,313.065C363.6,313.065 369.686,309.693 369.686,300.234M312.607,301.057L312.607,295.381C312.607,278.439 323.874,269.967 349.288,269.885C374.702,269.885 385.971,278.439 385.971,295.381L385.971,301.057C385.971,318.164 374.702,326.717 349.288,326.717C323.874,326.8 312.607,318.164 312.607,301.057" style="fill:rgb(20,20,20);fill-rule:nonzero;"/>
        </g>
        <g transform="matrix(4.16667,0,0,4.16667,-861.864,-698.69)">
            <path d="M448.397,271.119L448.397,284.69L427.096,284.69L427.096,325.649L411.469,325.649L411.469,284.69L390.167,284.69L390.167,271.119L448.397,271.119Z" style="fill:rgb(20,20,20);fill-rule:nonzero;"/>
        </g>
        <g transform="matrix(4.16667,0,0,4.16667,-861.864,-698.346)">
            <path d="M509.674,300.234L509.674,296.205C509.674,286.828 503.67,283.538 489.276,283.538C474.884,283.538 468.879,286.828 468.879,296.205L468.879,300.234C468.879,309.693 474.966,313.065 489.276,313.065C503.588,313.065 509.674,309.693 509.674,300.234M452.595,301.057L452.595,295.381C452.595,278.439 463.862,269.967 489.276,269.885C514.69,269.885 525.959,278.439 525.959,295.381L525.959,301.057C525.959,318.164 514.69,326.717 489.276,326.717C463.862,326.8 452.595,318.164 452.595,301.057" style="fill:rgb(20,20,20);fill-rule:nonzero;"/>
        </g>
        <g transform="matrix(4.16667,0,0,4.16667,-861.864,-698.69)">
            <path d="M588.961,271.119L603.601,271.119L603.601,325.649L585.424,325.649L552.526,291.023L552.526,325.649L537.803,325.649L537.803,271.119L555.322,271.119L588.961,305.662L588.961,271.119Z" style="fill:rgb(20,20,20);fill-rule:nonzero;"/>
        </g>
        <g transform="matrix(4.16667,0,0,4.16667,-861.864,-698.692)">
            <path d="M666.852,296.288C666.852,287.734 662.575,284.691 653.693,284.691L634.364,284.691L634.364,312.079L653.693,312.079C662.493,312.079 666.852,308.954 666.852,300.236L666.852,296.288ZM653.364,271.119C674.09,271.119 682.972,279.016 682.972,296.37L682.972,300.4C682.972,317.836 674.09,325.65 653.364,325.65L618.738,325.65L618.738,271.119L653.364,271.119Z" style="fill:rgb(20,20,20);fill-rule:nonzero;"/>
        </g>
        <g transform="matrix(4.16667,0,0,4.16667,-861.864,-698.692)">
            <path d="M288.34,290.448C288.34,293.902 286.531,295.876 281.596,295.876L260.047,295.876L260.047,284.115L281.596,284.115C286.448,284.115 288.34,286.007 288.34,289.379L288.34,290.448ZM292.534,306.568C300.513,304.512 304.461,299.412 304.461,289.872L304.461,288.721C304.461,276.055 297.058,271.12 282.254,271.12L244.53,271.12L244.53,283.859C244.53,287.383 246.027,290.747 248.642,293.109C250.435,294.729 251.604,297.053 251.604,298.385C251.604,299.717 250.435,302.041 248.642,303.661C246.027,306.022 244.53,309.387 244.53,312.911L244.53,325.649L260.047,325.649L260.047,307.638L275.427,307.638L288.093,325.649L306.681,325.649L292.534,306.568Z" style="fill:rgb(20,20,20);fill-rule:nonzero;"/>
        </g>
        <g transform="matrix(4.16667,0,0,4.16667,-861.864,-698.691)">
            <path d="M722.072,295.876L726.778,289.529C729.303,286.123 733.292,284.115 737.532,284.115L738.902,284.115L738.902,295.876L722.072,295.876ZM754.419,325.649L754.419,312.911C754.419,309.387 752.922,306.022 750.307,303.661C748.514,302.041 747.344,299.716 747.344,298.385C747.344,297.053 748.514,294.728 750.307,293.109C752.922,290.747 754.419,287.382 754.419,283.859L754.419,271.12L735.232,271.12C726.807,271.12 718.879,275.111 713.861,281.879L681.411,325.649L699.999,325.649L713.352,307.637L738.902,307.637L738.902,325.649L754.419,325.649Z" style="fill:rgb(20,20,20);fill-rule:nonzero;"/>
        </g>
    </g>
</svg>
